<svg version="1.2" xmlns="http://www.w3.org/2000/svg" viewBox="0 0 128 72" width="128" height="72">
	<title>Nowy projekt</title>
	<style>
		.s0 { fill: #000000 } 
	</style>
	<path id="ZAJEBISTY KOMIS" class="s0" aria-label="ZAJEBISTY
KOMIS"  d="m20.6 14.1l0.3-0.1-0.1 7.2 0.1 0.4-0.1 0.7 0.1 1.5-0.1 0.8h-0.3-0.3-0.1-0.1-1.5-0.1-0.1-0.2-0.2l-0.1-0.1-0.3 0.1h-0.1l-1.4-0.1-2.4 0.1h-0.1v-0.1l-0.1 0.1h-0.4l-0.1-0.1v-0.1-0.1q-0.1 0-0.1 0.3h-0.1l-0.2-0.1-0.1 0.2 0.1 0.2-0.1 0.1h-0.1v0.1h-0.1-0.1v0.1h0.1 0.2q0 0 0.1 0.3h-0.1l0.1 0.1h-0.1l0.1 0.5-0.1 0.2q0 0.1-0.4 0v0.1h0.4v0.3l0.4 0.2v0.1q0-0.2 0.1-0.2h0.2 0.1 0.2l0.5-0.1h0.2v0.1-0.1h1.3 0.2q0.2 0 0.2 0h0.2 1 0.1 0.2 1 0.3 0.1 0.1 1.2 0.3 0.3l0.2 0.1v0.1l0.1 2.9h-0.1l0.1 0.2-0.1 0.4 0.1 0.5q-0.1 0.1-0.1 0.1h-0.4-0.5-0.2-0.1-1-0.4-0.1-0.4-0.3-0.3-0.1-0.1-0.1-0.1-0.1-0.2-1.9-0.2-0.1-0.1-0.3-1.2-0.4-0.4-0.1-0.3-0.2-0.8-0.2-0.3-0.1-0.2-0.1-0.4q-0.2 0-0.2 0h-0.2-0.2l-0.1-0.1-0.1 0.1-0.1-0.1 0.1-1.6v-0.5-0.1-1.8-0.6-0.6-0.2-1.5-0.1l0.2-1.5-0.1-0.2h0.1l-0.1-0.1v-0.1h0.1-0.1l0.1-0.6h-0.1l-0.1 0.6v-1.6q0 0 0.3 0h0.1 0.6 0.2 0.1 0.1 0.2 0.1 0.2 0.6 0.1 0.2 0.1 0.2 0.1 0.1 0.1 0.1 0.2 0.3 0.1q0.2 0 0.2 0h0.1 0.2 0.3 1.8l1.9 0.2-0.4-0.1q0-0.1 0.2-0.1h0.1v-0.2h0.1q0-0.1-0.1-0.1v-0.3h0.4-0.4v-0.3-1.3q-0.1 0-0.1-0.1-0.1 0-0.1 0.1h-1.7v0.1-0.1h-0.1-0.6-0.6-2.2-1.7-0.4-0.1-0.1-0.1-0.1-0.1-0.1-0.2q-0.1 0-0.2-0.3h0.1q-0.1-0.4-0.1-0.9v-0.2-1-0.1-0.1-0.5-0.2-0.1-0.1-0.5-0.1h0.3 0.1 0.1 0.5 3.3 5.3l1.8 0.1q0 0-0.4-0.1l-0.1 0.1-0.1-0.1h0.1zm7.1 0h0.3 0.3 0.3l0.9 0.1h0.4 0.8l-0.1 0.1 1.9-0.1 0.1 0.1 0.1-0.1 0.3 0.1 0.6-0.1q0.5 0 0.8 0.3 0.5 0.2 0.8 1 0 0.4 0.1 1.1h-0.1l0.1 0.1v1.9l-0.1 0.3 0.1 0.4v3.6q0 0.8 0 1.1v0.1 0.1 1.1 0.2 2.9 0.2 0.2 1 0.9l-0.1 1.7v0.2 0.6 0.2 0.4 0.4 0.1 0.1 0.4h-0.1q-1.1-1-2.8-2.7h0.1q-0.3-0.1-1.2-1v-0.1h0.1q-0.1-0.1-0.1-0.2v-1.1-0.1-0.1-0.3-0.1-1.2-1.2-0.1-0.1-0.1l0.1-0.3h-0.1v-0.3-0.4-0.1-0.2h0.1q-0.1-0.1-0.1-0.2 0.1 0 0.1-0.1h0.3l0.1-0.1h-0.6 0.1v-0.1h-0.1-0.1-0.1-0.1-0.1l-1.1 0.1v-0.1l-0.3 0.1h-0.6-0.2-0.1-0.2l-0.2-0.1-0.3 0.1h-0.4v-0.2q0 0 0 0.2h-0.2l-0.3-0.1v0.1 0.2q-0.2 0-0.2 0v0.1h0.2l-0.1 1.6 0.1 1.1q0.1 0.4 0.1 1.3v1.9l-0.1 0.1h-0.2l-0.1-0.1h-2.5v0.1-0.1h-0.1l-0.1 0.1h-0.7-0.4q-0.1-0.1-0.1-0.9v-0.1l-0.1-0.5h0.1l-0.1-0.2v-1.2-0.2-2.2l0.1-1.1-0.1-0.2v-1.2-0.6-0.1-0.1-0.1-0.2-1.1-0.1-0.1-0.5q0-0.3 0-0.3v-0.4-0.1-0.1-0.7-0.1-0.2-0.6-0.1-0.1-0.4-0.4-0.6-1.4-0.1-0.1-0.3h0.6 0.1v-0.1h-0.1v-0.1zm3.1 4.2h-0.9-2.3-0.1-0.1-0.1-0.1-0.3v-0.1q-0.1 0.1-0.2 0.1v1.8l-0.1 0.1q0.1 0 0.1 0.1v0.2h0.1 0.4q0 0.1 0 0.1 0.1 0 0.1-0.1h0.4 0.8 0.2 0.1 0.1 0.2 0.2 0.1 0.1l0.6-0.1 0.2 0.1h0.2v-0.1l0.1 0.1h0.4v0.1-0.1h0.2v-0.1q-0.1 0-0.1-0.1l0.1-0.1h-0.2l0.1-0.1-0.1-0.4v-0.6l0.2-0.2-0.2 0.1v-0.4h0.1 0.1 0.1-0.2-0.1v-0.1l0.1-0.2h-0.1-0.1v-0.1h-0.1q0 0 0 0.1zm11.2-4.2q0.2 0.1 0.4 0.1v-0.1h0.2 0.1 0.3 0.3v0.1q0 0.4 0 1.3v1 0.2 2.9 1.1q-0.1 0.1-0.1 0.2h0.1q0 0-0.1 0.1v0.1h0.1v3.8l0.1 4.1q0 1.2-1.3 1.8-0.2 0.1-0.5 0.1h-0.4q-0.1 0-0.1 0.1l-0.2-0.1-0.1 0.1-0.1-0.1-0.1 0.1h-1.1-0.7-0.1-0.1-0.8-0.1-0.2-0.3q-0.1 0-0.1-0.2v-0.1-0.4-1.1-0.1-0.1-0.3-0.1-0.1q0-1.7 0.1-1.7l0.4 0.1 0.1-0.1 0.2 0.1h0.4 0.3 0.1 0.1l0.1 0.1 0.2-0.2 0.1 0.1v-0.1-0.3-2.4-0.8-3.7l-0.1-0.1 0.1-0.2-0.1-0.4v-3.6l0.1-0.6h-0.1 0.1l-0.1-0.2v-0.3q0 0 0.2-0.1l0.1 0.1h0.6l0.1-0.1 0.2 0.1v-0.1 0.1l0.2-0.1h0.1l0.1 0.1 0.1-0.1h0.1l0.1 0.1 0.1-0.1 0.2 0.1 0.2-0.1v0.1l0.3-0.1zm0.8 0.5h-0.1 0.1zm2.4 0.1v-0.5h1.6 0.1 0.1 0.2 0.2 0.4 0.5l0.1 0.1 0.1-0.1v0.1-0.1h0.1l0.1 0.1 0.2-0.1h1.4l0.1 0.1v-0.1h2.7 0.2 0.4 0.2 0.1 0.1 0.2 0.2 0.1 0.1 0.3 0.3v0.1l0.3-0.1 0.1 0.1 0.2-0.1h0.5 1.3v0.5q-0.1 0.5-0.1 1.4v2.2l-0.3 0.1h-0.7-1-0.1q-0.2 0-0.2-0.1l-0.1 0.1h-0.1-0.2q-0.2 0-0.2-0.1l-0.2 0.1-0.1-0.1v0.1h-0.6v-0.1 0.1h-0.3v-0.1 0.1h-0.5l-0.1-0.1-0.1 0.1h-0.2v-0.1 0.1h-0.5v-0.1 0.1h-0.1v-0.1l-0.1 0.1h-0.2v-0.1 0.1h-0.3v-0.1 0.1l-0.6-0.1h-0.5-0.9q0-0.1 0-0.1 0 0 0 0.1h-0.1-0.4l-0.1 0.1h0.4 0.1v0.2h-0.1 0.1v0.1q0 0-0.1 0v0.1q0.1 0 0.1 0l-0.1 0.1h0.1v1.1 0.5 0.1l0.1-0.1q0.2 0.1 0.2 0.1 0.3-0.1 0.9-0.1l0.1 0.1v-0.1l4.1 0.1h0.9v0.8l-0.1 0.6v0.3 0.4q0.1 0.4 0.1 1.1l-0.1 0.9h-0.9-0.3-0.2-0.2-1.9-0.2-0.2-0.6-0.2-0.1-0.2-0.3-0.2l-0.2-0.1v0.1l-0.1-0.1-0.2 0.1q-0.1-0.1-0.1-0.3-0.2 0.4-0.2 0.7v0.1q-0.1 0-0.1 0h0.1v0.1 0.2l0.1 0.1-0.1 0.4q0 0-0.1 0v0.1l0.1 0.1v0.3h-0.1v0.1h0.1v0.2q0 0.1 0.2 0.1v-0.1h2v0.1-0.1h0.4 0.1 0.2 0.2 0.1 0.1 0.1 0.1 0.6 2.3 0.2 0.1 0.6 0.3 0.1 0.3 0.2q0.1 0 0.1 0 0.2 0 0.2 0.1v0.3 0.3 0.1 0.1 0.2 0.1 0.1 0.5 0.7 0.1 0.1 0.1 0.1 0.6 0.3 0.1 0.3h-0.6-0.2-0.3-0.7l-0.7-0.1h-1.5l-0.1 0.1-0.1-0.1q-0.1 0.1-0.3 0.1h-0.6l-0.1-0.1-0.2 0.1h-1.5-0.2-0.1-0.2-0.1-0.1-0.3-0.2-0.3-0.3-0.3-0.2-0.1-0.8-0.1-0.2-0.2-0.2-0.2-0.5l-0.2-0.1 0.1-0.1h-0.1q0 0.2-0.4 0.2h-0.4v-0.1l-0.1-0.3 0.1-0.3v-0.1-0.1-0.4-0.4-0.1-0.8-0.2q0-0.1 0.1-0.1-0.1-0.3-0.1-1.2v-6.5q0.1-0.6 0.1-1.8v-0.1-0.1-0.1q-0.1-0.2-0.1-0.4v-0.1h0.1v-0.1q0-0.1-0.1-0.1v-0.1-0.1l0.1-0.1-0.1-0.1 0.1-0.2-0.1-1 0.1-0.6v-0.1h-0.1v0.2zm0 0.5h0.1q0-0.7 0.1-0.7 0.1 0 0.3 0.7-0.2-0.8-0.3-0.8-0.1 0-0.2 0.8zm0.5 0.2zm0.1 0.2h-0.1l0.1 0.1zm13.6-1.3h0.3 0.7q0.8 0 1.1 0h0.2l0.8 0.1v-0.1h1l0.1 0.1 0.2-0.1h0.5v0.1l0.1-0.1 0.1 0.1 0.1-0.1 0.1 0.1 0.1-0.1v0.1h0.1v-0.1l0.1 0.1h0.1l0.1-0.1 0.3 0.1h1.1l0.2-0.1v0.1l0.5-0.1h1.3l0.4 0.1v-0.1h0.1l0.1 0.1 0.4-0.1q1.5 0 2.2 1 0.3 1 0.3 1.2v0.2 0.3 0.1 0.2 0.8 0.3q-0.1 0.1-0.1 0.2v0.1-0.1h0.1v0.8h-0.1v-0.1 1.1q-0.1 1.4-0.3 1.4-0.3 0.5-0.7 0.7-0.3 0.1-0.4 0.1h-0.1q0 0.1-0.3 0.1h-0.2l-0.1 0.1q0 0.2 0.2 0.2h0.3q0.4 0 0.7 0.2 0.1 0 0.4 0.5 0.5 0.5 0.5 0.9v0.2 0.4 1.8 0.7 0.5 0.7 0.3q0 0.8-0.8 1.6-0.5 0.2-0.9 0.3l-0.4 0.1h-3l-0.2-0.1v0.1l-0.3-0.1h-0.1-4-0.2q-0.4 0-1.5-0.1l0.2 0.1h-0.2-0.2-0.2-0.6-0.1-0.1v-0.3-0.3-4.4q0.1 0 0.1-0.1l-0.1-1v-0.2l0.1-0.1h-0.1l0.1-0.7-0.1-0.4 0.1-0.4v-0.1q0-0.1 0-0.1v-0.1l-0.1-2.7v-0.2l0.1-0.2-0.1-0.2v-0.8h0.1l-0.1-0.1 0.1-0.1-0.1-0.5v-0.5-0.2-0.2-0.2-0.1-0.1-0.2-0.3-0.1-0.3-0.2-0.5-0.5zm8 4.1l-0.2 0.1v-0.1l-0.1 0.1h-1.4-0.5-0.4-0.2-0.1-0.4-0.3v-0.1q-0.1 0.1-0.2 0.1v1.5q0 0.1-0.1 0.1l0.1 0.1-0.1 0.3h-0.1v-0.1 0.1h0.2v0.2h0.1 0.1 0.1 0.1 1.5 0.1 1 0.7 0.1q0.1 0 0.2 0.1h0.1q0-0.1 0.1-0.1 0.1 0 0.1 0v-0.1 0.1h-0.1v-0.2-0.4q0-0.2 0.1-0.3l-0.1-0.2 0.1-0.4-0.1-0.4q0-0.1 0.1-0.1v-0.1h0.1v-0.1h-0.6zm4.6 0.4v0.3zm-8.1 6.2l-0.2-0.2q0 0.1 0 0.1h-0.1v-0.1 0.1 0.5h-0.1q-0.2 0-0.2 0l0.3 0.1v0.4l-0.1 0.2 0.1 0.1v0.5q0 0.2-0.3 0.2 0.2 0 0.2 0.2 0 0.1 0.1 0.1h0.1 0.1 0.8 0.1 1 0.1 0.2 0.4 0.1 0.1 0.1 0.6 0.5v0.1 0.1l0.1-0.4h-0.1v-1.8h0.1q0 0.1 0.1 0.1l-0.1-0.3q-0.1 0-0.1-0.2-0.1 0.2-0.4 0.2h-0.1-0.5q-0.3 0-1.1 0h-0.8l-0.7-0.1-0.2 0.1zm10.5-10.6l0.2-0.1 0.4 0.1h0.2 1 0.1 0.1 0.2 0.1 0.1 0.2 0.6 0.1 0.4q0 1-0.1 2.1v0.1 0.1h0.1v0.6 0.2h-0.1 0.1v0.3q0 0.1-0.1 0.1v1.8 0.2l0.1 0.2-0.1 2.5v0.1 0.2 0.1 0.1 0.2 0.5 0.1q0 0.1 0 0.3v0.6l0.1 0.8-0.1 0.8v1q0 0.4 0 0.4v0.2 1.2l0.1 0.5h-0.1l0.1 0.2v1.6l-0.1 0.3q0.1 0.2 0.1 0.5v0.4q0 0.1-0.1 0.1 0.1 0 0.1 0.6v0.5 0.1 0.1 0.2 0.2 0.3 0.1 0.1 0.2 0.1l-0.1 0.2q-0.1 0-1.3-1.3-1.7-1.7-1.7-1.8l-0.4-0.5 0.1 0.2q-0.7-0.6-0.7-0.8l-0.1-0.1v-0.2h0.1l0.1 0.1q-0.2-0.1-0.2-0.3v-0.3-0.4-0.2-0.7-0.2-0.7-0.7-0.4-0.5-0.1-0.1-0.3-0.1-0.4-0.4-0.6-0.2-0.1-0.1l0.1-0.8-0.1-2.3h0.1l-0.1-0.1v-0.3h0.1l-0.1-0.2v-2.5l0.1-0.6-0.1-0.1 0.1-0.9v-0.1-0.2-0.6l0.1-0.2q0 0.1 0.1 0.1-0.1-0.3-0.2-0.3l0.1-0.1v-0.6l-0.1-0.1h0.1q0.1 0 0.1 0zm3.6 3.1v0.1zm-3.7 13.9v0.1zm7.6-17h0.2 0.6 0.9 0.1 0.1 0.8 1.3 2.4 0.1 0.1 2.1 0.8l0.9 0.1v3.7 0.2 0.1 0.1h-1.5l-0.1-0.1-0.1 0.1h-0.1l-0.1-0.1v0.1l-0.3-0.1-0.2 0.1v-0.1 0.1l-0.4-0.1-3.4 0.1h-0.1-1.4l-0.1-0.1h-0.2l-0.1-0.1q0 0.1-0.2 0.1l-0.1 0.2 0.1 0.4h-0.1 0.1v0.1l-0.1 0.1q-0.3 0.1-0.3 0.1v0.1q0.4 0 0.4 0v0.8l-0.1 0.1 0.1 0.1-0.1 0.2 0.1 0.2v-0.1-0.1l0.2 0.1q0.1-0.1 0.2-0.1h2.6l1.6 0.2v-0.1q0 0-0.1 0v-0.1h0.2 0.3l0.1 0.1v-0.1h1.1l0.2 0.1v-0.1q0.4 0 1.1 0.4 0 0.1 0.3 0.3 0.5 0.5 0.5 1.4v0.1 0.1 0.1 0.2 0.1 0.1 0.3 1.5 1.5 0.2 0.1l-0.1 0.6 0.1 0.2v0.2l-0.1 0.1h0.1l-0.1 0.3 0.1 0.4v0.4q0 1-0.9 1.6-0.4 0.3-1.3 0.3h-3.1-0.4-0.1-0.1-1.8-0.3-0.1-0.2-0.2-0.5-0.1q-0.3 0-1 0h-2.3l-0.1-0.1 0.1-3.5-0.1-0.5 0.2-0.1h0.4l0.7 0.1 0.3-0.1v0.1l0.1-0.1 0.5 0.1 0.1-0.1 0.1 0.1 0.1-0.1 0.3 0.2q0.2-0.1 0.6-0.1h0.1l-0.2 0.1 2.1-0.1h1.1 0.2 0.1 0.6 0.7q0 0 0 0.1h0.1q0-0.1 0-0.1h0.2 0.1l-0.1-0.1 0.1-0.3v-0.8-0.4l-0.1-0.3 0.1-0.1-0.1-0.2 0.1-0.1h-0.2-0.1q0-0.1-0.1-0.1 0 0-0.1 0.1-0.7-0.1-1.1-0.1h-0.1-0.2-0.4l-0.2 0.1v-0.1l-0.1 0.1h-0.6-0.1-0.1-0.7-0.4-0.1-0.2-0.1-0.2-1.1q-1 0-1-0.2 0-0.1-0.3-0.1-0.4 0-0.8-0.9v-0.1q0 0 0.5 0.7l-0.6-0.9q0-0.2 0-0.4 0-0.1 0-0.1v-1.4-0.2l-0.1-0.1v-0.1h0.1v-1.7-0.6q0-0.1-0.1-0.1v-0.3-1.5-0.1-0.1l0.1-0.2h-0.1v-0.1-0.1q0-0.3 0.2-0.8 0.7-1 1.7-1h0.1 0.1zm12.9 0h0.3v0.1-0.1l0.1 0.1 0.4-0.1 4.2 0.1h1.5 0.5 0.3 0.5 0.5-0.1q-0.5 0.1-0.5 0.2h0.4q2.9-0.2 3.7-0.2v0.2 0.6 1 0.4 0.6 1.3q0 0-0.1 0.1h-0.1v-0.1l-0.2 0.1h-0.2l-0.6-0.1h-0.8-0.1-0.6-0.2-0.1-0.4-0.3-0.1-0.1-0.1-0.1-0.1v0.1 0.1q0 0-0.2 0 0 0.1 0.2 0.1v0.1l-0.1 0.1h0.1l-0.1 0.2 0.1 0.1v0.2 0.9 0.2 1.1l-0.1 0.2h0.1l-0.1 0.7v5.3l0.1 4.3v0.3 0.1 0.1 2.1 0.2 0.1 0.2q-0.6-0.5-2.1-2.1-0.1 0-1.6-1.6-0.4-0.3-0.4-0.4v-0.1q-0.1 0-0.1-0.3v-0.1-0.2q0-0.2 0-0.2v-1-0.5-0.3-0.2-0.4-0.4-0.1-0.1-0.2-0.2-0.5-0.7-0.2-0.2-0.3q0-1.1 0.1-1.3v-0.2-0.2q0 0-0.1 0v-0.2q0-0.6 0.1-0.6-0.1 0-0.1-0.5 0-0.2 0-0.5v-1-0.4-0.1-0.1-0.1-0.2-0.1-0.1l0.1-0.6v-0.2h0.1q-0.1 0-0.1-0.1h-0.1l-0.1 0.1-0.3-0.1v0.1l-0.4-0.1h-0.3-0.8-0.8-0.1-0.2-0.2-0.5-0.3v-0.1l-0.1-1.8v-2.1q0-0.2 0.1-0.2zm13.6 0h0.3 0.1 0.2 0.2v0.1q0.4-0.1 0.7-0.1h1.5v0.1h0.1l-0.1-0.1h0.1 0.1v0.1l0.7-0.1h0.1v1.1 1.4 1.1l-0.1 0.4h0.1l-0.1 0.5v0.4 0.1 0.1 0.1 0.2 0.3q0 0.1-0.2 0.1h-0.2 0.2 0.2v0.2 0.1 0.3h0.5 0.6l0.4-0.1 0.1 0.1v-0.1l0.2 0.1 0.1-0.1 0.1 0.1v-0.1l0.2 0.1h0.6l0.1-0.1 0.4 0.1h0.2 0.7v0.1-0.1h0.1v0.1q0-0.1 0.1-0.2v-0.1l0.1-0.1v-0.1h-0.1v-0.1-0.4-0.8-0.1-0.1-0.2-0.1-0.2-2-1.1-0.1-0.1-0.1-0.1-0.1-0.2-0.1l0.2-0.1h1 0.1 0.7 0.5 0.1 0.1 0.8 0.6l0.1 0.1v1.5 0.9 0.2 1.5 0.3 0.1 0.2 0.1 0.3 0.1 0.2 0.2 0.1 0.1 0.1 0.1 0.3 0.6 0.2 0.6 0.6 0.2q0 1-0.8 1.6-0.5 0.4-1.2 0.4v-0.1l-0.3 0.1h-0.1-0.1-1.2q-0.1-0.1-0.1-0.2l-0.1 0.1h-0.1-0.1-0.2l-0.1 0.1h0.1v0.2q-0.1 0.4-0.1 0.7v1.3 1.6l0.1 2.7h-0.1l0.1 0.1v0.9 0.4 0.5 0.5 0.1 0.2 0.1 0.1 0.3 0.4 0.1 0.1 0.2h-0.1q-0.2 0-1.6-1.5l-1.8-1.9q-0.6-0.6-0.6-0.8l0.1-0.1h-0.1-0.1v-2.6l0.1-0.9h-0.1v-0.5-1.5l0.1-0.1-0.1-0.1v-0.2l0.1-0.1v-0.1-0.2h-0.2-0.1-0.2-0.3-0.5-0.2-0.4-0.2l-0.1-0.1-0.1 0.1q-0.7 0-1.4-0.6-0.6-0.5-0.6-1.4 0.2 0 0.2-0.1h-0.2v-0.9q0-1.1 0.1-1.1v-0.2-3.7-0.1-0.3-1.6-0.1q0-0.4 0.1-0.4zm0.8 0l-0.6 0.1v0.1h0.1l0.5-0.1zm2.1 0h-0.2 0.1 0.1zm-0.2 0h-0.2 0.2zm-0.6 0l-0.1 0.1h0.1v-0.1zm0.3 0h-0.2v0.1h0.2zm-0.7 0h-0.1 0.1zm-1.5 0.1l0.2 0.1h0.1v-0.1h-0.2q-0.1 0-0.1 0zm1.2 0h-0.1 0.1zm-0.4 0h-0.2v0.1h0.2v-0.1zm-80.1 28.8l0.1-0.1h0.5l0.2 0.1v-0.1l0.1 0.1v-0.1h0.1v0.1-0.1l0.3 0.1h0.8 0.8 0.5 0.7v0.3 0.4 0.2 1.1 0.4 0.1 1.6 1.5q0 0.1-0.1 0.2l-0.3-0.1q-0.1 0.1-0.1 0.1h0.3 0.1v0.1q-0.1 0-0.1 0.1h0.1v0.2q-0.1 0-0.2 0v0.1q0.3 0.1 0.5 0.1h0.4 0.1l0.3-0.1 0.1 0.1 0.1-0.1h0.1l0.1 0.1 0.1-0.1h0.2v0.1-0.1h0.1l0.1 0.1 0.2-0.1v0.1l0.1-0.1 0.2 0.1h0.1l0.4-0.1 0.4 0.1h0.8q0 0 0 0.1 0.1-0.1 0.3-0.1v-0.1l-0.1-0.1v-0.2-0.9-0.3-0.5q0.1 0 0.1-0.1v-0.1-0.1l-0.1-1h0.1-0.1l0.1-0.8v-1.3-0.7-0.1-0.1h0.1l0.1 0.1v-0.1l0.1 0.1 0.2-0.1 0.2 0.1v-0.1l0.1 0.1 0.6-0.1 0.1 0.1 0.3-0.1h0.1l0.1 0.1 0.2-0.1v0.1l0.1-0.1h0.3l0.6 0.1 0.6-0.1q0.3 0 0.3 0.1v0.2 0.1 0.4 3.9l-0.1 0.3h0.1l-0.1 0.5v0.1 0.1 0.5q-0.1 1.1-0.3 1.4-0.5 0.4-0.7 0.5-0.2 0.2-0.5 0.2h-0.2v0.1h-0.3-0.1v0.1h0.1 0.1q1 0 1.7 1.2 0.2 0.4 0.2 0.7v0.2 0.4 2.2l-0.1 1.4v0.1 1.7 0.1 0.1 0.1 0.1 0.2 0.1 0.6q0 2-0.1 3.3-0.3-0.2-3.4-3.4-0.6-0.6-0.6-0.6v-0.2-0.1-0.4-0.1-0.2-0.4-0.1-0.3-0.5-0.1-0.1-0.1-0.3-0.1-0.2-0.1-0.4-0.7-0.3-0.2-1.1-0.3q0-0.1 0.2-0.1l-0.2-0.1q-0.1 0-0.1 0.1h-1.6l-0.2-0.1-0.1 0.1-1.7-0.1h-0.1q0 0-0.1 0-0.1 0-0.1 0h-0.1v-0.1q-0.2 0-0.2 0.3-0.1 0.2-0.2 0.2 0.2 0 0.2 0v0.2q-0.1 0-0.1 0.1 0.1 0 0.1 0.1v0.2 0.3 0.3 0.1 0.8 3.9h-0.1-0.3-0.3-0.3-0.6-0.2-0.4-1.9v-0.3-0.1-1.2-0.4-0.3-0.2-0.1-0.4-2.1-0.2-0.1-0.1-1.2-0.7-0.2-0.1l0.1-0.2q-0.1-0.3-0.1-1.1v-0.8l0.1-0.1h-0.1l0.1-0.3v-0.7-0.1-0.8-1.5-1.2-0.1-0.2-0.4-0.3zm23.3 0h0.2 0.1 0.6l0.3 0.1 0.3-0.1v0.1l0.3-0.1q0.1 0 0.1 0.1 0.1 0.1 0.8 0.2 0.3 0.2 0.3 0.3 0.2 0.5 0.3 0.5h0.1q0.1 0 0.1 0.7h0.1q0 0.2 0.1 0.2l-0.1 0.1h0.1v0.3 0.8 1.9l-0.1 0.2 0.1 0.2v0.7l-0.1 0.2 0.1 0.2-0.1 0.3 0.1 0.2-0.1 0.7 0.1 0.2-0.1 0.3v0.8l0.1 5.6v0.3q-0.2 0.9-0.6 1.3-0.5 0.5-1.6 0.5h-0.8-2-1.3-0.7-0.1-0.2q-3.4 0-3.4 0.1h-0.1q-0.7 0-1.4-0.8-0.4-0.4-0.4-1.4l-0.1-0.8 0.1-0.2q-0.1-0.1-0.1-2.6v-6.7-0.9-0.2-0.8-0.3q0-1.5 1.2-2h0.1v0.1h0.4v-0.1h-0.2q0.3-0.1 0.7-0.1h0.2 0.1 0.1q0.3 0 0.7 0h2.4l0.3-0.1v0.1-0.1h0.3v0.1-0.1h0.7v0.1-0.1zm-6.9 0.2h-0.1 0.1zm-0.2 0h-0.1 0.2zm5.5 3.9l-1.7 0.1h-0.1-0.1-0.1-0.1-0.1-0.1-0.2-0.3-0.4v0.3 0.1 0.1 0.6 1.1 1 0.1q-0.1 0.7-0.1 1.3v0.4l0.1 2.1v0.2 0.4 0.1 0.1 0.3q0 0.2 0 0.2v0.1 0.2l0.5-0.1h0.1 0.1v0.4h0.1v-0.4h2 0.1 0.1 0.6 0.2 0.2 0.2 0.1 0.1l-0.1-0.3v-0.3-0.5h0.1v0.3-0.1q-0.1-1.2-0.1-1.7v-1.4-0.2-0.5-0.7-0.1-0.5-1.3h0.1l0.1 0.6v-0.1q-0.1-0.8-0.2-0.8v-0.4-0.3l0.1-0.1v-0.1q0-0.1 0.1-0.1-0.2 0-0.2-0.1 0 0.1-0.3 0.1h-0.8q0-0.1 0-0.1zm1.3 2v0.1zm0 0.2v0.4h0.1v-0.2zm0 0.5v0.1zm0 0.2v0.1 0.1zm0.1 0.4h-0.1l0.1 0.1zm-0.2 4.7v0.1zm6.2-12.1h0.3 0.1l-0.1 0.1h0.1l0.4-0.1 3.8 0.1 0.4-0.1h0.7l1.7 0.1h1.6 0.8 0.1 0.3 0.3 0.4 0.3 1.9v-0.1 0.1l0.3-0.1h4.3l0.3 0.1v-0.1 0.1l1.9 0.1q0-0.1 0.1-0.1 0.8 0.3 0.8 0.5 0.4 0.5 0.4 0.7v0.3h0.1v-0.2q0.1 0.3 0.1 0.6v0.7 2.3 0.1 1.3 0.1 3.1 1.4 4.4 0.4q0 0.3 0 0.4v5l-2.6-2.8-1.1-1.1-0.4-0.4q-0.1-0.7-0.2-1.9h0.1l-0.1-0.3v-0.6-0.2-0.1-0.7-0.6-0.1-0.4l0.1-0.2-0.1-0.3v-0.4-0.3-0.4-1.6-0.4-0.1-0.2-0.3-0.1-0.1-0.1-0.2-0.3-0.1-0.1-0.1-0.1l0.1-2.1q0 0 0 0l-0.1-0.1-0.2 0.1-0.2-0.1h-0.2q-0.2 0-0.2-0.1v-0.1h-0.1v0.2h-0.9-0.9-1.1-0.3v0.1l-0.3-0.1v0.1 0.4q-0.2 0.2-0.2 0.3 0 0.3 0.2 1.1l-0.1 0.6v4.4l0.1 5.6h-0.8-0.3-0.2-0.2-0.2-0.7-0.1-0.1-1.2-0.1-0.1-0.2l-0.2-0.1v-1-1.3-0.7-0.1-0.1-0.1l0.1 0.2 0.1-0.3q0-0.6-0.1-0.9v-0.1q-0.1-0.8-0.1-2.5v-0.1-0.8-0.4-0.8h0.1v1.4h0.1v-0.2q-0.1-1.4-0.1-3.5v-0.3l0.1 0.6v-0.7-0.1q-0.1 0-0.1-0.4v-0.1h-0.3-1.9-1.3-0.1-0.1-0.2-0.3-0.1-0.1v-0.1q0 0-0.1 0.3h-0.1v0.1q0.1 0 0.1 0.1h-0.1q0 0.1 0.1 0.1v0.2q0 0.2 0 0.6v2.1l-0.1 2.3v0.7 0.1 1.5 0.3 0.7 1 0.1 0.3l0.1 1.3h-0.1l0.1 0.1v0.5h-0.1 0.1v0.1q0 0-0.1 0h-3-0.3-0.4l-0.2-0.1-0.1 0.1q-0.2 0-0.2-0.3v-0.4h0.1l-0.1-0.2 0.1-5.2-0.1-0.2 0.1-0.4v-0.1l-0.1-0.4 0.1-0.5v-0.6l-0.1-0.4h0.1v-0.1q-0.1-0.7-0.1-2.1v-0.2h0.1v-0.2h-0.1l0.1-0.6q-0.1-1.1-0.1-2.1v-0.5-0.1-0.1-1.2-0.1-0.2-0.6q0 0 0.2-0.1zm21.3 1.8h-0.1v0.1h0.1zm-16.3 2.5v0.1zm3.4 4.9v0.2 0.1zm0.1 0.3h-0.1v0.2h0.1zm0 0.3v0.1zm0.1 0.3l-0.1-0.1 0.1 0.1zm0 0.2l-0.1-0.1v0.1h0.1zm0 0.4v0.1zm0 0.1v0.1zm15.1-10.7l0.2-0.1 0.4 0.1h0.1 0.1 1 0.1 0.1 0.3 0.1 0.1 0.1 0.7 0.5q0 1-0.1 2.1v0.1l-0.1 0.1h0.1v0.5 0.3 0.3q0 0.1-0.1 0.1l0.1 1.8v0.2 0.2 2.5 0.3 0.1 0.1 0.2 0.4l-0.1 0.2q0.1 0.1 0.1 0.3v0.6 0.7 0.9 0.9q0 0.5-0.1 0.5l0.1 0.2v1.2 0.5 0.2 1.6 0.3q0 0.2 0 0.5v0.3 0.1q0 0.1 0 0.1 0 0 0 0.6v0.4 0.2 0.1 0.2 0.2 0.2 0.1 0.1 0.1 0.1 0.1 0.3q-0.1 0-1.4-1.3-1.7-1.7-1.7-1.8l-0.4-0.5 0.2 0.2q-0.8-0.6-0.8-0.8v-0.1-0.2l0.1 0.1q-0.1-0.2-0.1-0.3v-0.3l-0.1-0.4 0.1-0.1-0.1-0.1 0.1-0.7v-0.2l-0.1-0.7 0.1-0.7v-0.4l-0.1-0.6h0.1-0.1l0.1-0.2-0.1-0.2 0.1-0.1-0.1-0.4v-0.5-0.5-0.2-0.1-0.1l0.2-0.8-0.1-2.3v-0.1-0.3-0.1-0.1-2.5-0.6-0.1l0.1-0.9v-0.1h-0.1l0.1-0.2v-0.6-0.2q0 0.1 0.1 0.1-0.1-0.3-0.1-0.3v-0.1-0.6-0.1q0.1 0 0.1 0zm3.7 3.1h-0.1v0.1h0.1zm-3.8 13.9h0.1zm7.6-16.9l0.2-0.1 0.6 0.1h0.8 0.2 0.8 1.4 2.3 0.1 0.1 2.1 0.8l0.9 0.1v3.7 0.2 0.1 0.1h-1.5l-0.1-0.1-0.1 0.1-0.1-0.1-0.1 0.1-0.3-0.1-0.2 0.1v-0.1 0.1l-0.3-0.1-3.4 0.1h-0.1-0.1-1.4l-0.1-0.1h-0.2l-0.1-0.1q0 0.1-0.2 0.1v0.2 0.3 0.1 0.1 0.1q-0.3 0-0.3 0.1 0.3 0.1 0.3 0.1v0.8 0.1 0.1 0.2 0.2h0.1l-0.1-0.2h0.1l0.1 0.1q0.1-0.1 0.2-0.1h2.7l1.5 0.1q0 0 0 0v-0.1h0.2 0.2 0.1 1.1 0.2 0.1q0.4 0 1 0.4 0 0.1 0.3 0.3 0.5 0.4 0.5 1.4v0.1 0.1 0.1 0.2 0.1 0.1 0.2 1.6 1.5 0.2 0.1 0.6 0.2 0.1 0.1 0.1 0.2 0.5 0.3q0 1.1-0.9 1.7-0.3 0.3-1.2 0.3h-3.2-0.4-0.2-1.8-0.3-0.1l-0.2-0.1-0.1 0.1h-0.5-0.1q-0.3 0-1.1 0h-2.3v-0.1-3.5-0.5l0.1-0.1h0.4l0.7 0.1 0.3-0.1v0.1l0.1-0.1 0.5 0.1 0.2-0.1 0.1 0.1v-0.1l0.3 0.1q0.3 0 0.6 0h0.1-0.1v0.1l2.1-0.1h1.1 0.2 0.7 0.6q0.1 0 0.1 0.1 0-0.1 0.1-0.1h0.1 0.1v-0.1-0.3-0.8-0.4-0.3-0.1-0.2-0.1h-0.1-0.2q0-0.1 0-0.1-0.1 0-0.1 0.1h-0.1q-0.6-0.1-1.1-0.1h-0.1-0.1-0.4-0.3-0.1l-0.6 0.1h-0.1-0.8-0.4-0.2-0.1-0.3-1q-1.1 0-1.1-0.2 0-0.1-0.3-0.1-0.4 0-0.8-0.9v-0.1q0.1 0 0.5 0.7h0.1l-0.6-0.9q-0.1-0.2-0.1-0.4 0-0.1 0-0.1v-1.4-0.2-0.1-0.1l0.1-1.7v-0.6q0-0.1-0.2-0.1l0.1-0.3v-1.5l-0.1-0.1 0.1-0.1h-0.1l0.1-0.2-0.1-0.1h0.1v-0.1q0-0.3 0.2-0.8 0.7-1 1.6-1h0.1 0.1 0.1z"/>
</svg>